<?xml version="1.0" standalone="no"?>
<!-- Generator: Adobe Fireworks 10, Export SVG Extension by Aaron Beall (http://fireworks.abeall.com) . Version: 0.6.1  -->
<!DOCTYPE svg PUBLIC "-//W3C//DTD SVG 1.1//EN" "http://www.w3.org/Graphics/SVG/1.1/DTD/svg11.dtd">
<svg id="Untitled-Page%201" viewBox="0 0 24 24" style="background-color:#ffffff00" version="1.1"
	xmlns="http://www.w3.org/2000/svg" xmlns:xlink="http://www.w3.org/1999/xlink" xml:space="preserve"
	x="0px" y="0px" width="24px" height="24px"
>
	<path d="M 14.4711 5.2132 C 11.858 2.6003 7.684 2.6635 5.1884 5.3116 C 2.7361 7.9136 2.8312 12.0417 5.3623 14.5728 C 7.8933 17.1039 11.9667 17.1441 14.5 14.6233 C 17.0782 12.0577 17.084 7.8261 14.4711 5.2132 ZM 16.6573 2.9667 C 20.1307 6.44 20.4309 11.8557 17.6422 15.6272 L 23.9176 21.9027 C 24.3147 22.2998 24.3048 22.9297 23.8965 23.3088 L 23.16 23.9927 C 22.7549 24.3689 22.1078 24.3537 21.7136 23.9595 L 15.4913 17.7373 C 11.7921 20.3607 6.6561 19.9655 3.3406 16.65 C -0.332 12.9773 -0.5029 6.9778 3.0394 3.1628 C 6.6742 -0.7515 12.8097 -0.881 16.6573 2.9667 Z" fill="#046667"/>
</svg>